name analog
datacolumns 19
datarows 18
range 0.2255 0.234
endheader
time	ground_force_vx	ground_force_vy	ground_force_vz	ground_force_px	ground_force_py	ground_force_pz	l_ground_force_vx	l_ground_force_vy	l_ground_force_vz	l_ground_force_px	l_ground_force_py	l_ground_force_pz	ground_torque_x	ground_torque_y	ground_torque_z	l_ground_torque_x	l_ground_torque_y	l_ground_torque_z
0.2255	-0.0	-0.0	-0.0	-1.7092397212982178	19.86896514892578	-238.6509704589844	4.524250030517578	-19.88039207458496	-262.9745483398437	-0.0	-0.0	-0.0	-0.0	-0.0	-0.0	77854.2578125	-19302.91015625	1984.3131103515625
0.226	-0.0	-0.0	-0.0	-1.0920599699020386	19.451942443847656	-238.04327392578125	4.092860221862793	-20.1333065032959	-262.59393310546875	-0.0	-0.0	-0.0	-0.0	-0.0	-0.0	77744.8984375	-19424.7109375	1978.50830078125
0.2265	-0.0	-0.0	-0.0	-0.8346675634384155	20.047286987304688	-237.3369140625	4.435539245605469	-20.06494140625	-262.3072814941406	-0.0	-0.0	-0.0	-0.0	-0.0	-0.0	77798.046875	-19805.216796875	2182.50439453125
0.227	-0.0	-0.0	-0.0	-0.8207231163978577	19.366233825683597	-236.34796142578125	4.5282816886901855	-20.309972763061523	-263.9268798828125	-0.0	-0.0	-0.0	-0.0	-0.0	-0.0	77821.65625	-19804.873046875	1992.2935791015625
0.2275	-0.0	-0.0	-0.0	-1.2561570405960083	19.633899688720703	-237.57591247558597	4.342757701873779	-19.79621696472168	-263.9425964355469	-0.0	-0.0	-0.0	-0.0	-0.0	-0.0	77550.3515625	-20039.75390625	1988.2735595703125
0.228	-0.0	-0.0	-0.0	-0.970688819885254	20.115158081054688	-237.06787109375	4.36286211013794	-20.1253719329834	-263.6094970703125	-0.0	-0.0	-0.0	-0.0	-0.0	-0.0	77375.9453125	-19710.927734375	2135.142333984375
0.2285	-0.0	-0.0	-0.0	-0.3604164123535156	20.029342651367188	-238.0715789794922	5.129063129425049	-19.796125411987305	-263.9586181640625	-0.0	-0.0	-0.0	-0.0	-0.0	-0.0	77910.2578125	-19893.2734375	2077.8046875
0.229	-0.0	-0.0	-0.0	-0.5316499471664429	19.53399658203125	-237.04095458984372	4.980041027069092	-19.972885131835938	-262.56201171875	-0.0	-0.0	-0.0	-0.0	-0.0	-0.0	77474.9375	-19909.892578125	2192.243896484375
0.2295	-0.0	-0.0	-0.0	-0.3461906611919403	19.61932945251465	-238.04327392578125	4.959770202636719	-20.133344650268555	-264.6094970703125	-0.0	-0.0	-0.0	-0.0	-0.0	-0.0	77368.1953125	-20132.52734375	2165.231689453125
0.23	-0.0	-0.0	-0.0	-0.5173693299293518	19.43042755126953	-239.7808380126953	4.9799394607543945	-19.9445915222168	-262.9271240234375	-0.0	-0.0	-0.0	-0.0	-0.0	-0.0	77410.640625	-19944.041015625	2138.3447265625
0.2305	-0.0	-0.0	-0.0	-1.028285026550293	20.19743156433105	-238.7775115966797	4.975779056549072	-20.149253845214844	-262.8641052246094	-0.0	-0.0	-0.0	-0.0	-0.0	-0.0	77602.1015625	-19732.7421875	2196.2265625
0.231	-0.0	-0.0	-0.0	-0.7993399500846863	19.54086685180664	-239.0746612548828	5.064557075500488	-20.02900505065918	-262.56201171875	-0.0	-0.0	-0.0	-0.0	-0.0	-0.0	77469.0703125	-20230.41015625	2251.63671875
0.2315	-0.0	-0.0	-0.0	-1.3201780319213867	19.50518798828125	-239.47023010253903	5.500068664550781	-19.792146682739254	-262.56201171875	-0.0	-0.0	-0.0	-0.0	-0.0	-0.0	77398.9375	-19984.130859375	2343.702392578125
0.232	-0.0	-0.0	-0.0	-1.2922247648239136	19.537208557128903	-240.162353515625	4.983803749084473	-19.95671844482422	-261.9424133300781	-0.0	-0.0	-0.0	-0.0	-0.0	-0.0	77335.6171875	-20348.8359375	2252.94287109375
0.2325	-0.0	-0.0	-0.0	-1.6843103170394895	19.772708892822266	-239.08871459960935	5.584749698638916	-20.30596351623535	-261.5621643066406	-0.0	-0.0	-0.0	-0.0	-0.0	-0.0	77162.578125	-20323.494140625	2199.343505859375
0.233	-0.0	-0.0	-0.0	-2.1086268424987797	20.382064819335938	-239.4417266845703	5.411357879638672	-20.121139526367188	-260.8323059082031	-0.0	-0.0	-0.0	-0.0	-0.0	-0.0	77094.890625	-20269.65625	2344.918212890625
0.2335	-0.0	-0.0	-0.0	-1.1738975048065186	19.779874801635746	-239.51205444335935	5.826865196228027	-20.20970916748047	-261.5303649902344	-0.0	-0.0	-0.0	-0.0	-0.0	-0.0	77412.34375	-19926.6171875	2281.802490234375
0.234	-0.0	-0.0	-0.0	-1.331012725830078	19.608688354492188	-238.4388885498047	5.31053352355957	-20.22164535522461	-261.1813049316406	-0.0	-0.0	-0.0	-0.0	-0.0	-0.0	77217.640625	-19952.708984375	2342.099609375
